HIERARCHY
ROOT Hips
{
	OFFSET 0.000000 0.000000 0.000000
	CHANNELS 6 Xposition Yposition Zposition Zrotation Yrotation Xrotation 
	JOINT LHipJoint
	{
		OFFSET 0.000000 0.000000 0.000000
		CHANNELS 3 Zrotation Yrotation Xrotation
		JOINT LeftUpLeg
		{
			OFFSET 1.363060 -1.794630 0.839290
			CHANNELS 3 Zrotation Yrotation Xrotation
			JOINT LeftLeg
			{
				OFFSET 2.448110 -6.726130 0.000000
				CHANNELS 3 Zrotation Yrotation Xrotation
				JOINT LeftFoot
				{
					OFFSET 2.562200 -7.039590 0.000000
					CHANNELS 3 Zrotation Yrotation Xrotation
					JOINT LeftToeBase
					{
						OFFSET 0.157640 -0.433110 2.322550
						CHANNELS 3 Zrotation Yrotation Xrotation
						End Site
						{
							OFFSET 0.000000 0.000000 0.000000
						}
					}
				}
			}
		}
	}
	JOINT RHipJoint
	{
		OFFSET 0.000000 0.000000 0.000000
		CHANNELS 3 Zrotation Yrotation Xrotation
		JOINT RightUpLeg
		{
			OFFSET -1.305520 -1.794630 0.839290
			CHANNELS 3 Zrotation Yrotation Xrotation
			JOINT RightLeg
			{
				OFFSET -2.542530 -6.985550 0.000000
				CHANNELS 3 Zrotation Yrotation Xrotation
				JOINT RightFoot
				{
					OFFSET -2.568260 -7.056230 0.000000
					CHANNELS 3 Zrotation Yrotation Xrotation
					JOINT RightToeBase
					{
						OFFSET -0.164730 -0.452590 2.363150
						CHANNELS 3 Zrotation Yrotation Xrotation
						End Site
						{
							OFFSET 0.000000 0.000000 0.000000
						}
					}
				}
			}
		}
	}
	JOINT LowerBack
	{
		OFFSET 0.000000 0.000000 0.000000
		CHANNELS 3 Zrotation Yrotation Xrotation
		JOINT Spine
		{
			OFFSET 0.028270 2.035590 -0.193380
			CHANNELS 3 Zrotation Yrotation Xrotation
			JOINT Spine1
			{
				OFFSET 0.056720 2.048850 -0.042750
				CHANNELS 3 Zrotation Yrotation Xrotation
				JOINT Neck
				{
					OFFSET 0.000000 0.000000 0.000000
					CHANNELS 3 Zrotation Yrotation Xrotation
					JOINT Neck1
					{
						OFFSET -0.054170 1.746240 0.172020
						CHANNELS 3 Zrotation Yrotation Xrotation
						JOINT Head
						{
							OFFSET 0.104070 1.761360 -0.123970
							CHANNELS 3 Zrotation Yrotation Xrotation
							End Site
							{
								OFFSET 0.000000 0.000000 0.000000
							}
						}
					}
				}
				JOINT LeftShoulder
				{
					OFFSET 0.000000 0.000000 0.000000
					CHANNELS 3 Zrotation Yrotation Xrotation
					JOINT LeftArm
					{
						OFFSET 3.362410 1.200890 -0.311210
						CHANNELS 3 Zrotation Yrotation Xrotation
						JOINT LeftForeArm
						{
							OFFSET 4.983000 -0.000000 -0.000000
							CHANNELS 3 Zrotation Yrotation Xrotation
							JOINT LeftHand
							{
								OFFSET 3.483560 -0.000000 -0.000000
								CHANNELS 3 Zrotation Yrotation Xrotation
								JOINT LeftFingerBase
								{
									OFFSET 0.000000 0.000000 0.000000
									CHANNELS 3 Zrotation Yrotation Xrotation
									JOINT LeftHandIndex1
									{
										OFFSET 0.715260 -0.000000 -0.000000
										CHANNELS 3 Zrotation Yrotation Xrotation
										End Site
										{
											OFFSET 0.000000 0.000000 0.000000
										}
									}
								}
								JOINT LThumb
								{
									OFFSET 0.000000 0.000000 0.000000
									CHANNELS 3 Zrotation Yrotation Xrotation
									End Site
									{
										OFFSET 0.000000 0.000000 0.000000
									}
								}
							}
						}
					}
				}
				JOINT RightShoulder
				{
					OFFSET 0.000000 0.000000 0.000000
					CHANNELS 3 Zrotation Yrotation Xrotation
					JOINT RightArm
					{
						OFFSET -3.136600 1.374050 -0.404650
						CHANNELS 3 Zrotation Yrotation Xrotation
						JOINT RightForeArm
						{
							OFFSET -5.241900 -0.000000 -0.000000
							CHANNELS 3 Zrotation Yrotation Xrotation
							JOINT RightHand
							{
								OFFSET -3.444170 -0.000000 -0.000000
								CHANNELS 3 Zrotation Yrotation Xrotation
								JOINT RightFingerBase
								{
									OFFSET 0.000000 0.000000 0.000000
									CHANNELS 3 Zrotation Yrotation Xrotation
									JOINT RightHandIndex1
									{
										OFFSET -0.622530 -0.000000 -0.000000
										CHANNELS 3 Zrotation Yrotation Xrotation
										End Site
										{
											OFFSET 0.000000 0.000000 0.000000
										}
									}
								}
								JOINT RThumb
								{
									OFFSET 0.000000 0.000000 0.000000
									CHANNELS 3 Zrotation Yrotation Xrotation
									End Site
									{
										OFFSET 0.000000 0.000000 0.000000
									}
								}
							}
						}
					}
				}
			}
		}
	}
}
MOTION
Frames: 10
Frame Time: 0.008333
15.883861 18.818333 19.578118 -179.126820 -2.905203 -149.155652 35.487607 9.979858 2.702908 -59.154472 -29.110695 -15.913501 6.263966 4.465273 13.150213 -1.032945 -16.882524 -44.421531 1.257000 -7.107400 -20.034000 -38.743717 -11.169474 2.193619 67.145060 25.263394 -12.821150 -6.170521 -3.101139 8.784850 -1.835930 12.674943 -46.838636 -0.630500 5.080900 -14.139400 -5.491690 -1.198146 -33.625665 9.243945 0.595195 -4.409521 -2.321032 -1.223201 22.624162 -10.456240 -2.659229 0.765155 11.730354 -5.401967 5.525482 0.803900 -2.432600 3.245600 16.965031 -4.585788 0.318216 -111.063122 -11.311747 24.968139 19.799469 -18.580133 -2.280980 0.678408 -0.173134 2.005986 22.866196 -10.470981 -4.193900 -7.125000 0.000000 0.000000 -3.434800 18.822200 2.146800 -12.672241 1.848472 0.377188 104.315581 3.635958 3.923231 -20.938625 28.177815 -3.299109 -0.743737 -4.578487 1.118928 -13.768198 -56.173334 10.386400 7.125000 0.000000 0.000000 61.117800 -75.713800 -47.564800 
15.883669 18.819099 19.575629 -179.155782 -2.843246 -149.178606 35.468067 9.993294 2.701515 -59.192452 -29.053782 -15.880962 6.261734 4.470201 13.149375 -0.987509 -16.805439 -44.446125 1.313300 -7.258900 -20.484700 -38.758248 -11.158581 2.171171 67.127608 25.244722 -12.780307 -6.176426 -3.107058 8.791454 -1.842219 12.602482 -46.745781 -0.561700 4.800600 -13.340600 -5.523700 -1.250342 -33.583471 9.277304 0.531159 -4.257636 -2.570175 -1.274355 21.976017 -11.181104 -3.281029 -1.266630 13.305902 -6.267092 10.631433 0.949200 -2.417000 3.994500 17.060623 -4.423391 0.531307 -111.043294 -10.990449 24.948384 19.812252 -18.510080 -2.281785 0.682627 -0.170876 1.998744 22.869929 -10.549185 -4.226400 -7.125000 0.000000 0.000000 -3.437600 18.734900 2.155200 -12.463366 2.171526 0.612862 104.303107 3.504627 3.821150 -20.934768 28.161490 -3.294614 -0.749984 -4.559712 1.098269 -13.801436 -55.866239 10.365300 7.125000 0.000000 0.000000 60.050900 -75.611100 -46.516800 
15.882808 18.819578 19.574479 -179.242823 -2.779962 -149.185004 35.430458 9.992495 2.663991 -59.286961 -28.967478 -15.810452 6.255891 4.449425 13.097737 -0.972082 -16.805607 -44.462400 1.355700 -7.370400 -20.817500 -38.789399 -11.187249 2.155636 67.071220 25.219436 -12.779136 -6.189768 -3.129275 8.870270 -1.869352 12.554048 -46.802618 -0.606000 4.982800 -13.859400 -5.507203 -1.208440 -33.473259 8.871338 0.481654 -4.429455 -2.300693 -1.332334 21.848024 -10.449120 -3.827207 -1.742553 11.857521 -6.891664 12.567953 0.661000 -2.650100 4.212700 16.993366 -4.408516 0.610028 -111.037298 -10.900517 24.828998 19.813597 -18.406132 -2.270066 0.680961 -0.175969 2.098694 22.814411 -10.831670 -4.326100 -7.125000 0.000000 0.000000 -3.484800 18.439900 2.207700 -12.452640 2.339286 0.721194 104.248992 3.398447 4.123896 -21.193821 28.489898 -3.375034 -0.718093 -4.625490 0.840596 -13.986053 -57.792362 10.784900 7.125000 0.000000 0.000000 67.129500 -76.322500 -53.634500 
15.882616 18.819386 19.574479 -179.279296 -2.782888 -149.266420 35.398474 9.956178 2.673100 -59.290538 -28.938511 -15.762672 6.257985 4.442981 13.105759 -1.007894 -16.882355 -44.450912 1.296100 -7.212900 -20.347800 -38.813175 -11.185936 2.236734 67.053679 25.294754 -12.787656 -6.180993 -3.177121 8.989117 -1.953875 12.401024 -46.955312 -0.689800 5.309500 -14.793500 -5.434797 -1.095617 -33.574809 8.526150 0.449613 -3.901527 -2.193252 -1.308666 21.706602 -10.401882 -3.466622 -1.909166 12.097624 -6.286415 10.915040 0.731200 -2.445000 4.080600 17.003357 -4.298379 0.523674 -110.982449 -10.927633 24.667865 19.887615 -18.580800 -2.293791 0.669164 -0.182677 2.314795 22.678334 -10.765410 -4.270400 -7.125000 0.000000 0.000000 -3.570900 18.528200 2.255500 -12.390764 2.212771 0.606405 104.328685 3.472877 3.955189 -21.109229 28.456598 -3.359276 -0.743857 -4.560976 0.971932 -13.905672 -56.215271 10.494600 7.125000 0.000000 0.000000 61.294300 -75.786700 -47.797400 
15.882329 18.819003 19.573330 -179.186310 -2.749265 -149.170761 35.438450 10.035190 2.614077 -59.257639 -28.886766 -15.787419 6.269846 4.437201 13.098422 -1.045701 -16.929771 -44.402083 1.223700 -7.016300 -19.763600 -38.781997 -11.140308 2.192141 67.065076 25.467853 -12.874957 -6.163656 -3.210505 9.080315 -2.001855 12.314501 -47.034604 -0.695400 5.330800 -14.854400 -5.506173 -1.292627 -33.275882 8.956359 0.422093 -4.602676 -2.234310 -1.389418 21.520595 -9.499584 -4.429921 -2.846731 9.910633 -7.376669 14.725084 0.281200 -2.842900 4.520300 16.828097 -4.311045 0.716229 -111.022166 -10.608408 24.763701 19.924583 -18.513480 -2.305339 0.676087 -0.162559 2.067496 22.587588 -10.404781 -4.114900 -7.125000 0.000000 0.000000 -3.628800 18.903200 2.262000 -12.552356 2.465831 0.847076 104.244381 3.316977 3.995275 -21.112342 28.452932 -3.367678 -0.755669 -4.571477 1.053312 -14.006798 -56.161295 10.562800 7.125000 0.000000 0.000000 60.995900 -75.799300 -47.546200 
15.880892 18.820727 19.570170 -179.135005 -2.738911 -149.476774 35.466118 9.967962 2.618716 -59.330421 -28.729986 -15.442884 6.282889 4.395608 12.993346 -0.911679 -16.738364 -44.473324 1.221400 -7.009800 -19.744500 -38.779776 -11.093136 2.197223 67.158430 25.327615 -12.589155 -6.155840 -3.179213 9.084243 -1.982170 12.441926 -47.038814 -0.688300 5.303800 -14.777200 -5.503550 -1.257772 -33.361102 9.068363 0.425804 -3.819962 -2.346293 -1.313465 21.454158 -10.121091 -3.731189 -2.364932 11.486757 -6.581146 12.097751 0.601300 -2.533200 4.228400 16.909109 -4.259654 0.568775 -110.942520 -10.720251 25.004453 19.896485 -18.561412 -2.305507 0.673088 -0.157966 1.866276 22.472644 -10.157810 -3.995400 -7.125000 0.000000 0.000000 -3.701100 19.175600 2.284800 -12.484741 2.240804 0.664115 104.290009 3.391179 4.061593 -21.182401 28.569850 -3.385301 -0.777809 -4.552987 0.911872 -14.531354 -56.044285 10.942000 7.125000 0.000000 0.000000 60.390100 -75.955600 -47.172500 
15.882999 18.818908 19.571128 -179.050629 -2.679777 -149.179896 35.504466 10.056756 2.599837 -59.198865 -28.803714 -15.735216 6.287570 4.422246 13.022396 -0.925874 -16.746316 -44.527075 1.284900 -7.183000 -20.258800 -38.736239 -11.064117 2.271115 67.098826 25.701854 -12.941813 -6.135887 -3.234697 9.175957 -1.954325 12.427728 -47.032777 -0.681700 5.278900 -14.705900 -5.645347 -1.415155 -33.391140 9.542492 0.468126 -4.419902 -2.483797 -1.343315 21.701679 -10.268126 -3.754776 -2.194597 11.505121 -6.648159 12.245768 0.614900 -2.559800 4.232400 16.880534 -4.349009 0.608498 -110.995326 -10.701225 24.785327 19.843675 -18.474524 -2.284387 0.675131 -0.158789 1.964448 22.456356 -10.271513 -4.036600 -7.125000 0.000000 0.000000 -3.717300 19.054100 2.304900 -12.554189 2.260266 0.727709 104.278392 3.340069 4.261390 -21.312850 28.713937 -3.433902 -0.766682 -4.546291 0.764303 -14.577444 -55.920529 10.961600 7.125000 0.000000 0.000000 59.928900 -75.928000 -46.737000 
15.882903 18.820631 19.571223 -179.137364 -2.664852 -149.014779 35.459552 10.041745 2.579163 -59.172329 -28.906556 -15.888999 6.277658 4.437686 13.044999 -0.935321 -16.764679 -44.557152 1.329400 -7.301400 -20.611500 -38.782246 -11.077430 2.367889 66.980743 25.976020 -13.177141 -6.134697 -3.304308 9.275791 -2.032536 12.169171 -47.082470 -0.674700 5.252500 -14.630200 -5.558674 -1.309074 -33.488866 9.021930 0.435120 -4.592029 -2.310244 -1.375324 21.810728 -10.153874 -3.808115 -2.147437 11.478561 -6.734016 12.424605 0.593700 -2.590400 4.247000 16.930461 -4.365800 0.621144 -110.983796 -10.746666 24.545994 19.785844 -18.339176 -2.253464 0.676678 -0.164491 2.192105 22.453457 -10.500653 -4.124400 -7.125000 0.000000 0.000000 -3.727300 18.811700 2.331200 -12.473183 2.317984 0.749453 104.318830 3.366359 4.305512 -21.424759 28.867841 -3.479775 -0.730830 -4.540001 0.496606 -14.340428 -55.817069 10.769500 7.125000 0.000000 0.000000 59.695200 -75.802600 -46.402000 
15.880605 18.818812 19.568542 -179.194598 -2.583372 -148.773087 35.448986 10.062740 2.536189 -59.199838 -28.963294 -16.028513 6.265667 4.440583 12.993374 -0.903859 -16.690860 -44.558715 1.365400 -7.395600 -20.892900 -38.800719 -11.064817 2.479180 66.793979 26.378539 -13.527071 -6.139011 -3.377657 9.434854 -2.035614 12.114714 -47.177781 -0.674000 5.249800 -14.622500 -5.568152 -1.283341 -33.602935 8.892162 0.460373 -4.983620 -2.289496 -1.394544 22.047069 -10.409543 -3.779261 -1.912249 11.987026 -6.776422 12.279364 0.675600 -2.599500 4.219800 16.985752 -4.423951 0.636813 -111.013068 -10.761533 24.375559 19.707602 -18.197762 -2.222281 0.680409 -0.165324 2.410040 22.473250 -10.587633 -4.162800 -7.125000 0.000000 0.000000 -3.718900 18.714400 2.334000 -12.417479 2.343028 0.769739 104.301352 3.416765 4.114646 -21.604997 29.084067 -3.540067 -0.641206 -4.568436 0.252359 -13.335948 -56.700501 10.140400 7.125000 0.000000 0.000000 63.360400 -75.757600 -49.609000 
15.877828 18.816801 19.564424 -179.269110 -2.523710 -148.761459 35.428561 10.046961 2.528696 -59.309266 -28.885260 -15.973173 6.257026 4.417668 12.906946 -0.889613 -16.661042 -44.522330 1.384900 -7.446200 -21.044200 -38.835675 -11.058056 2.522178 66.721317 26.414222 -13.533783 -6.158134 -3.340712 9.383014 -1.948637 12.355986 -47.190450 -0.650700 5.159800 -14.364900 -5.572082 -1.252200 -33.815367 8.669791 0.421893 -4.735232 -2.179593 -1.416305 22.039661 -10.314505 -3.993456 -2.052836 11.866943 -7.052839 12.758331 0.625400 -2.707800 4.280700 17.017518 -4.409481 0.628417 -111.012201 -10.782140 24.393472 19.643814 -18.067042 -2.197634 0.683201 -0.164814 2.469812 22.471765 -10.635088 -4.181200 -7.125000 0.000000 0.000000 -3.723400 18.661900 2.341200 -12.400834 2.377260 0.770588 104.322495 3.433734 4.204649 -21.553502 29.044107 -3.537100 -0.715694 -4.520999 0.566303 -14.046656 -55.565082 10.517400 7.125000 0.000000 0.000000 58.980900 -75.598700 -45.566200 
